<?xml version="1.0" encoding="UTF-8"?>
<svg width="512" height="512" viewBox="0 0 512 512" fill="none" xmlns="http://www.w3.org/2000/svg">
  <rect width="512" height="512" rx="128" fill="#6366F1"/>
  <path d="M128 176C128 158.327 142.327 144 160 144H352C369.673 144 384 158.327 384 176V336C384 353.673 369.673 368 352 368H160C142.327 368 128 353.673 128 336V176Z" fill="white"/>
  <rect x="160" y="176" width="192" height="32" rx="8" fill="#6366F1"/>
  <rect x="160" y="224" width="128" height="16" rx="8" fill="#6366F1"/>
  <rect x="160" y="256" width="160" height="16" rx="8" fill="#6366F1"/>
  <rect x="160" y="288" width="144" height="16" rx="8" fill="#6366F1"/>
  <rect x="160" y="320" width="96" height="16" rx="8" fill="#6366F1"/>
  <circle cx="352" cy="264" r="24" fill="#6366F1"/>
  <circle cx="352" cy="264" r="12" fill="white"/>
</svg>