<?xml version="1.0" encoding="UTF-8"?>
<svg width="512" height="512" viewBox="0 0 512 512" fill="none" xmlns="http://www.w3.org/2000/svg">
  <!-- Background Circle -->
  <circle cx="256" cy="256" r="248" fill="#6366F1" stroke="white" stroke-width="16"/>
  
  <!-- Calendar Icon -->
  <rect x="128" y="144" width="256" height="256" rx="16" fill="white"/>
  
  <!-- Calendar Header -->
  <rect x="128" y="144" width="256" height="48" rx="16" fill="#4F46E5"/>
  
  <!-- Calendar Grid Lines -->
  <line x1="128" y1="240" x2="384" y2="240" stroke="#E2E8F0" stroke-width="4"/>
  <line x1="128" y1="288" x2="384" y2="288" stroke="#E2E8F0" stroke-width="4"/>
  <line x1="128" y1="336" x2="384" y2="336" stroke="#E2E8F0" stroke-width="4"/>
  
  <line x1="170" y1="192" x2="170" y2="400" stroke="#E2E8F0" stroke-width="4"/>
  <line x1="213" y1="192" x2="213" y2="400" stroke="#E2E8F0" stroke-width="4"/>
  <line x1="256" y1="192" x2="256" y2="400" stroke="#E2E8F0" stroke-width="4"/>
  <line x1="299" y1="192" x2="299" y2="400" stroke="#E2E8F0" stroke-width="4"/>
  <line x1="342" y1="192" x2="342" y2="400" stroke="#E2E8F0" stroke-width="4"/>
  
  <!-- Calendar Events -->
  <rect x="173" y="244" width="80" height="40" rx="4" fill="#6366F1" fill-opacity="0.3"/>
  <rect x="259" y="292" width="80" height="40" rx="4" fill="#6366F1" fill-opacity="0.6"/>
  <rect x="216" y="340" width="80" height="40" rx="4" fill="#6366F1"/>
  
  <!-- Checkmark -->
  <path d="M338 192L348 202L368 182" stroke="white" stroke-width="6" stroke-linecap="round" stroke-linejoin="round"/>
</svg>