<?xml version="1.0" encoding="UTF-8"?>
<svg width="512" height="512" viewBox="0 0 512 512" fill="none" xmlns="http://www.w3.org/2000/svg">
  <!-- Background -->
  <rect width="512" height="512" rx="128" fill="#6366F1"/>
  
  <!-- Calendar Icon -->
  <rect x="112" y="128" width="288" height="288" rx="24" fill="white"/>
  
  <!-- Calendar Lines -->
  <rect x="144" y="176" width="224" height="8" rx="4" fill="#6366F1" opacity="0.6"/>
  <rect x="144" y="224" width="224" height="8" rx="4" fill="#6366F1" opacity="0.6"/>
  <rect x="144" y="272" width="224" height="8" rx="4" fill="#6366F1" opacity="0.6"/>
  <rect x="144" y="320" width="224" height="8" rx="4" fill="#6366F1" opacity="0.6"/>
  <rect x="144" y="368" width="224" height="8" rx="4" fill="#6366F1" opacity="0.6"/>
  
  <!-- Calendar Top -->
  <rect x="112" y="128" width="288" height="48" rx="24" fill="#6366F1"/>
  
  <!-- Calendar Dots (Day indicators) -->
  <circle cx="160" y="200" r="8" fill="#6366F1"/>
  <circle cx="208" y="200" r="8" fill="#6366F1"/>
  <circle cx="256" y="200" r="8" fill="#6366F1"/>
  <circle cx="304" y="200" r="8" fill="#6366F1"/>
  <circle cx="352" y="200" r="8" fill="#6366F1"/>
  
  <circle cx="160" y="248" r="8" fill="#6366F1"/>
  <circle cx="208" y="248" r="8" fill="#6366F1"/>
  <circle cx="256" y="248" r="8" fill="#6366F1"/>
  <circle cx="304" y="248" r="12" fill="#6366F1"/>
  <circle cx="352" y="248" r="8" fill="#6366F1"/>
  
  <circle cx="160" y="296" r="8" fill="#6366F1"/>
  <circle cx="208" y="296" r="8" fill="#6366F1"/>
  <circle cx="256" y="296" r="12" fill="#6366F1"/>
  <circle cx="304" y="296" r="8" fill="#6366F1"/>
  <circle cx="352" y="296" r="8" fill="#6366F1"/>
  
  <circle cx="160" y="344" r="8" fill="#6366F1"/>
  <circle cx="208" y="344" r="12" fill="#6366F1"/>
  <circle cx="256" y="344" r="8" fill="#6366F1"/>
  <circle cx="304" y="344" r="8" fill="#6366F1"/>
  <circle cx="352" y="344" r="8" fill="#6366F1"/>
</svg>